<?xml version="1.0" encoding="UTF-8"?>
<!-- This file is generated by npm run build:icons -->
<svg xmlns="http://www.w3.org/2000/svg" xmlns:xlink="http://www.w3.org/1999/xlink" width="0" height="0">
<defs>
<symbol viewBox="0 0 24 24" fill="none" stroke="currentColor" stroke-width="2" stroke-linecap="round" stroke-linejoin="round" id="chevron-down">
  <path d="m6 9 6 6 6-6" ></path>
</symbol>
<symbol viewBox="0 0 24 24" fill="none" stroke="currentColor" stroke-width="2" stroke-linecap="round" stroke-linejoin="round" id="square-pen">
  <path d="M12 3H5a2 2 0 0 0-2 2v14a2 2 0 0 0 2 2h14a2 2 0 0 0 2-2v-7" ></path>
  <path d="M18.375 2.625a2.121 2.121 0 1 1 3 3L12 15l-4 1 1-4Z" ></path>
</symbol>
<symbol viewBox="0 0 24 24" fill="none" stroke="currentColor" stroke-width="2" stroke-linecap="round" stroke-linejoin="round" id="trash-2">
  <path d="M3 6h18" ></path>
  <path d="M19 6v14c0 1-1 2-2 2H7c-1 0-2-1-2-2V6" ></path>
  <path d="M8 6V4c0-1 1-2 2-2h4c1 0 2 1 2 2v2" ></path>
  <line x1="10" x2="10" y1="11" y2="17" ></line>
  <line x1="14" x2="14" y1="11" y2="17" ></line>
</symbol>
</defs>
</svg>
