<svg xmlns="http://www.w3.org/2000/svg" width="0" height="0"><defs><symbol id="check" fill="none" stroke="currentColor" stroke-linecap="round" stroke-linejoin="round" stroke-width="2" viewBox="0 0 24 24"><path d="M20 6 9 17l-5-5"/></symbol><symbol id="chevron-down" fill="none" stroke="currentColor" stroke-linecap="round" stroke-linejoin="round" stroke-width="2" viewBox="0 0 24 24"><path d="m6 9 6 6 6-6"/></symbol><symbol id="circle" fill="none" stroke="currentColor" stroke-linecap="round" stroke-linejoin="round" stroke-width="2" viewBox="0 0 24 24"><circle cx="12" cy="12" r="10"/></symbol><symbol id="download" fill="none" stroke="currentColor" stroke-linecap="round" stroke-linejoin="round" stroke-width="2" viewBox="0 0 24 24"><path d="M21 15v4a2 2 0 0 1-2 2H5a2 2 0 0 1-2-2v-4M7 10l5 5 5-5M12 15V3"/></symbol><symbol id="google" fill="none" viewBox="0 0 40 40"><path fill="#4285F4" d="M31.6 20.2273c0-.7091-.0636-1.3909-.1818-2.0455H22V22.05h5.3818c-.2318 1.25-.9363 2.3091-1.9954 3.0182v2.5091h3.2318c1.8909-1.7409 2.9818-4.3046 2.9818-7.35"/><path fill="#34A853" d="M22 30c2.7 0 4.9636-.8955 6.6181-2.4227l-3.2318-2.5091c-.8954.6-2.0409.9545-3.3863.9545-2.6046 0-4.8091-1.7591-5.5955-4.1227h-3.3409v2.5909C14.7091 27.7591 18.0909 30 22 30"/><path fill="#FBBC04" d="M16.4045 21.9c-.2-.6-.3136-1.2409-.3136-1.9s.1136-1.3.3136-1.9v-2.5909h-3.3409C12.3864 16.8591 12 18.3864 12 20s.3864 3.1409 1.0636 4.4909z"/><path fill="#E94235" d="M22 13.9773c1.4681 0 2.7863.5045 3.8227 1.4954l2.8682-2.8682C26.9591 10.9909 24.6954 10 22 10c-3.9091 0-7.2909 2.2409-8.9364 5.5091L16.4045 18.1c.7864-2.3636 2.9909-4.1227 5.5955-4.1227"/></symbol><symbol id="log-out" fill="none" stroke="currentColor" stroke-linecap="round" stroke-linejoin="round" stroke-width="2" viewBox="0 0 24 24"><path d="M9 21H5a2 2 0 0 1-2-2V5a2 2 0 0 1 2-2h4M16 17l5-5-5-5M21 12H9"/></symbol><symbol id="logo" fill="none" stroke="currentColor" viewBox="0 0 46 46"><path stroke="#23F0C7" stroke-linecap="round" stroke-linejoin="round" stroke-width="2" d="M18 20h-3c-.5523 0-1 .4477-1 1v3c0 .5523.4477 1 1 1h3c.5523 0 1-.4477 1-1v-3c0-.5523-.4477-1-1-1"/><path stroke="#EF767A" stroke-linecap="round" stroke-linejoin="round" stroke-width="2" d="M31 20h-3c-.5523 0-1 .4477-1 1v3c0 .5523.4477 1 1 1h3c.5523 0 1-.4477 1-1v-3c0-.5523-.4477-1-1-1"/><path stroke="#7D7ABC" stroke-linecap="round" stroke-linejoin="round" stroke-width="2" d="M18 33h-3c-.5523 0-1 .4477-1 1v3c0 .5523.4477 1 1 1h3c.5523 0 1-.4477 1-1v-3c0-.5523-.4477-1-1-1"/><path stroke="#FFE347" stroke-linecap="round" stroke-linejoin="round" stroke-width="2" d="M29.4 33h-1.8c-.3314 0-.6.2686-.6.6v1.8c0 .3314.2686.6.6.6h1.8c.3314 0 .6-.2686.6-.6v-1.8c0-.3314-.2686-.6-.6-.6"/><path stroke="#7D7ABC" stroke-linecap="round" stroke-linejoin="round" stroke-width="2" d="M23 34v-3c0-.5304.2107-1.0391.5858-1.4142A2 2 0 0 1 25 29h3"/><path stroke="#FFE347" stroke-linecap="round" stroke-linejoin="round" stroke-width="2" d="M14 29h.01"/><path stroke="#7D7ABC" stroke-linecap="round" stroke-linejoin="round" stroke-width="2" d="M23 20h.01"/><path stroke="#FFE347" stroke-linecap="round" stroke-linejoin="round" stroke-width="2" d="M23 24v.01"/><path stroke="#23F0C7" stroke-linecap="round" stroke-linejoin="round" stroke-width="2" d="M32 38v.01"/><path stroke="#EF767A" stroke-linecap="round" stroke-linejoin="round" stroke-width="2" d="M18 29h1"/><path stroke="#23F0C7" stroke-linecap="round" stroke-linejoin="round" stroke-width="2" d="M32 29v.01"/><path stroke="#EF767A" stroke-linecap="round" stroke-linejoin="round" stroke-width="2" d="M23 38v-1"/><path stroke-linecap="round" stroke-linejoin="round" stroke-width="2" d="M28.7498 3.83334h-17.25a3.83336 3.83336 0 0 0-3.8333 3.83334V38.3333c0 1.0167.40387 1.9917 1.12276 2.7106a3.8334 3.8334 0 0 0 2.71054 1.1228h23c1.0167 0 1.9917-.4039 2.7106-1.1228a3.8333 3.8333 0 0 0 1.1228-2.7106V13.4167z"/><path stroke-linecap="round" stroke-linejoin="round" stroke-width="2" d="M26.8335 3.83334V11.5c0 1.0167.4039 1.9917 1.1228 2.7106.7188.7189 1.6939 1.1227 2.7105 1.1227h7.6667"/></symbol><symbol id="plus" fill="none" stroke="currentColor" stroke-linecap="round" stroke-linejoin="round" stroke-width="2" viewBox="0 0 24 24"><path d="M5 12h14M12 5v14"/></symbol><symbol id="settings" fill="none" stroke="currentColor" stroke-linecap="round" stroke-linejoin="round" stroke-width="2" viewBox="0 0 24 24"><path d="M12.22 2h-.44a2 2 0 0 0-2 2v.18a2 2 0 0 1-1 1.73l-.43.25a2 2 0 0 1-2 0l-.15-.08a2 2 0 0 0-2.73.73l-.22.38a2 2 0 0 0 .73 2.73l.15.1a2 2 0 0 1 1 1.72v.51a2 2 0 0 1-1 1.74l-.15.09a2 2 0 0 0-.73 2.73l.22.38a2 2 0 0 0 2.73.73l.15-.08a2 2 0 0 1 2 0l.43.25a2 2 0 0 1 1 1.73V20a2 2 0 0 0 2 2h.44a2 2 0 0 0 2-2v-.18a2 2 0 0 1 1-1.73l.43-.25a2 2 0 0 1 2 0l.15.08a2 2 0 0 0 2.73-.73l.22-.39a2 2 0 0 0-.73-2.73l-.15-.08a2 2 0 0 1-1-1.74v-.5a2 2 0 0 1 1-1.74l.15-.09a2 2 0 0 0 .73-2.73l-.22-.38a2 2 0 0 0-2.73-.73l-.15.08a2 2 0 0 1-2 0l-.43-.25a2 2 0 0 1-1-1.73V4a2 2 0 0 0-2-2"/><circle cx="12" cy="12" r="3"/></symbol><symbol id="spinner" fill="none" viewBox="0 0 24 24"><circle cx="12" cy="12" r="10" stroke="currentColor" stroke-width="4" opacity="25%"/><path fill="currentColor" d="M4 12a8 8 0 0 1 8-8V0C5.373 0 0 5.373 0 12zm2 5.291A7.962 7.962 0 0 1 4 12H0c0 3.042 1.135 5.824 3 7.938z" opacity="75%"/></symbol><symbol id="square-pen" fill="none" stroke="currentColor" stroke-linecap="round" stroke-linejoin="round" stroke-width="2" viewBox="0 0 24 24"><path d="M12 3H5a2 2 0 0 0-2 2v14a2 2 0 0 0 2 2h14a2 2 0 0 0 2-2v-7"/><path d="M18.375 2.625a2.121 2.121 0 1 1 3 3L12 15l-4 1 1-4Z"/></symbol><symbol id="trash-2" fill="none" stroke="currentColor" stroke-linecap="round" stroke-linejoin="round" stroke-width="2" viewBox="0 0 24 24"><path d="M3 6h18M19 6v14c0 1-1 2-2 2H7c-1 0-2-1-2-2V6M8 6V4c0-1 1-2 2-2h4c1 0 2 1 2 2v2M10 11v6M14 11v6"/></symbol><symbol id="users" fill="none" stroke="currentColor" stroke-linecap="round" stroke-linejoin="round" stroke-width="2" viewBox="0 0 24 24"><path d="M16 21v-2a4 4 0 0 0-4-4H6a4 4 0 0 0-4 4v2"/><circle cx="9" cy="7" r="4"/><path d="M22 21v-2a4 4 0 0 0-3-3.87M16 3.13a4 4 0 0 1 0 7.75"/></symbol><symbol id="x" fill="none" stroke="currentColor" stroke-linecap="round" stroke-linejoin="round" stroke-width="2" viewBox="0 0 24 24"><path d="M18 6 6 18M6 6l12 12"/></symbol></defs></svg>